<svg width="24" height="24" viewBox="0 0 24 24" fill="none" xmlns="http://www.w3.org/2000/svg">
<path fill-rule="evenodd" clip-rule="evenodd" d="M20 3H4C2.34806 3 1.01 4.34735 1.01 6L1 17.9992C1 19.6523 2.34772 21 4 21H20C21.6523 21 23 19.6523 23 18V6C23 4.34772 21.6523 3 20 3ZM5.48447 8.99967C5.01141 8.71464 4.85899 8.1001 5.14402 7.62704C5.42904 7.15399 6.04359 7.00157 6.51664 7.28659L11.9711 10.573L17.6628 7.14361C18.1358 6.85859 18.7512 7.01239 19.0362 7.48544C19.3206 7.95742 19.1704 8.57188 18.6994 8.85777L12.0104 12.9174L12.0041 12.9279L5.48447 8.99967Z" fill="#979797"/>
<mask id="mask0_981_3329" style="mask-type:luminance" maskUnits="userSpaceOnUse" x="1" y="3" width="22" height="18">
<path fill-rule="evenodd" clip-rule="evenodd" d="M20 3H4C2.34806 3 1.01 4.34735 1.01 6L1 17.9992C1 19.6523 2.34772 21 4 21H20C21.6523 21 23 19.6523 23 18V6C23 4.34772 21.6523 3 20 3ZM5.48447 8.99967C5.01141 8.71464 4.85899 8.1001 5.14402 7.62704C5.42904 7.15399 6.04359 7.00157 6.51664 7.28659L11.9711 10.573L17.6628 7.14361C18.1358 6.85859 18.7512 7.01239 19.0362 7.48544C19.3206 7.95742 19.1704 8.57188 18.6994 8.85777L12.0104 12.9174L12.0041 12.9279L5.48447 8.99967Z" fill="white"/>
</mask>
<g mask="url(#mask0_981_3329)">
<rect width="24" height="24" fill="#396DF8"/>
</g>
</svg>
