<svg width="204" height="32" viewBox="0 0 204 32" fill="none" xmlns="http://www.w3.org/2000/svg">
<g clip-path="url(#clip0_684_1561)">
<path d="M184.243 10.2396H182.108V6.21503C182.108 6.16326 182.086 6.11582 182.043 6.07699C182 6.03817 181.953 6.0166 181.901 6.0166C181.84 6.0166 181.789 6.03817 181.75 6.07699C181.711 6.11582 181.689 6.16326 181.689 6.21503V10.4338C181.689 10.4855 181.707 10.533 181.746 10.5718C181.784 10.6106 181.832 10.6322 181.888 10.6322H184.239C184.291 10.6322 184.338 10.6149 184.377 10.5761C184.416 10.5373 184.437 10.4898 184.437 10.4338C184.437 10.382 184.416 10.3345 184.377 10.3C184.338 10.2612 184.291 10.244 184.239 10.244L184.243 10.2396Z" fill="#1B52AA"/>
<path d="M187.495 7.59103C187.352 7.45731 187.189 7.35809 187.007 7.28907C186.826 7.22006 186.636 7.18555 186.442 7.18555C186.179 7.18555 185.929 7.25888 185.696 7.40123C185.463 7.54358 185.269 7.74632 185.122 8.00945C184.976 8.27258 184.902 8.59179 184.902 8.96276C184.902 9.30785 184.976 9.61412 185.118 9.87294C185.265 10.1318 185.467 10.3345 185.726 10.4812C185.985 10.6278 186.283 10.6968 186.623 10.6968C186.874 10.6968 187.107 10.6408 187.314 10.5243C187.525 10.4078 187.698 10.2698 187.827 10.1145C187.87 10.0757 187.892 10.0282 187.892 9.97646C187.892 9.93333 187.874 9.8945 187.84 9.86C187.805 9.82549 187.767 9.80823 187.723 9.80823C187.676 9.80823 187.629 9.8298 187.577 9.86862C187.516 9.94627 187.439 10.0239 187.348 10.0972C187.258 10.1706 187.15 10.2267 187.025 10.2698C186.9 10.3129 186.762 10.3345 186.611 10.3345C186.334 10.3345 186.097 10.2741 185.894 10.149C185.696 10.0282 185.541 9.86 185.437 9.64863C185.334 9.44157 185.282 9.20864 185.282 8.94982H187.771C187.823 8.94982 187.87 8.93257 187.909 8.89374C187.948 8.85492 187.969 8.81178 187.974 8.76002C187.965 8.50552 187.918 8.28121 187.831 8.08709C187.745 7.89298 187.633 7.72906 187.491 7.59534L187.495 7.59103ZM185.39 8.32003C185.459 8.14749 185.554 8.00514 185.666 7.89298C185.778 7.78083 185.903 7.69887 186.041 7.6471C186.179 7.59534 186.317 7.56946 186.447 7.56946C186.623 7.56946 186.792 7.60828 186.956 7.68161C187.12 7.75495 187.258 7.8671 187.37 8.00945C187.486 8.15611 187.551 8.32866 187.568 8.53571V8.58748H185.321C185.338 8.49258 185.364 8.40199 185.394 8.32003H185.39Z" fill="#1B52AA"/>
<path d="M191.611 7.2636C191.555 7.2636 191.508 7.28517 191.469 7.32399C191.43 7.36281 191.413 7.41026 191.413 7.47065V7.88476C191.348 7.76398 191.266 7.65183 191.162 7.55261C191.042 7.44046 190.895 7.34987 190.731 7.28085C190.567 7.21615 190.39 7.18164 190.201 7.18164C189.907 7.18164 189.644 7.25497 189.411 7.40595C189.178 7.55693 188.993 7.75967 188.859 8.0228C188.721 8.28593 188.656 8.58788 188.656 8.92866C188.656 9.26944 188.725 9.56276 188.859 9.83021C188.993 10.0977 189.178 10.309 189.411 10.4643C189.644 10.6196 189.912 10.6929 190.213 10.6929C190.399 10.6929 190.571 10.6584 190.731 10.5894C190.891 10.5204 191.033 10.4341 191.15 10.322C191.262 10.2184 191.352 10.102 191.421 9.98118V10.4255C191.421 10.4773 191.439 10.5247 191.477 10.5635C191.516 10.6023 191.564 10.6239 191.62 10.6239C191.671 10.6239 191.719 10.6023 191.758 10.5635C191.797 10.5247 191.818 10.4773 191.818 10.4255V7.46203C191.818 7.40595 191.801 7.3585 191.762 7.31536C191.723 7.27654 191.676 7.25497 191.62 7.25497L191.611 7.2636ZM190.861 10.1451C190.679 10.2659 190.472 10.3263 190.239 10.3263C190.006 10.3263 189.799 10.2659 189.618 10.1451C189.437 10.0243 189.295 9.85609 189.191 9.64472C189.088 9.43335 189.036 9.19179 189.036 8.92866C189.036 8.66553 189.088 8.42396 189.191 8.21691C189.295 8.00986 189.437 7.84594 189.618 7.72947C189.799 7.613 190.006 7.55261 190.235 7.55261C190.464 7.55261 190.675 7.613 190.856 7.7381C191.037 7.85888 191.18 8.02711 191.283 8.23417C191.387 8.44122 191.439 8.67415 191.439 8.93297C191.439 9.19179 191.387 9.43335 191.283 9.64903C191.18 9.8604 191.037 10.0286 190.856 10.1494L190.861 10.1451Z" fill="#1B52AA"/>
<path d="M194.647 7.233C194.574 7.19849 194.496 7.18555 194.418 7.18555C194.228 7.18555 194.06 7.22437 193.909 7.30201C193.758 7.37966 193.625 7.48319 193.517 7.6126C193.409 7.742 193.318 7.88004 193.258 8.03102C193.249 8.04827 193.249 8.06553 193.241 8.07847V7.47887C193.241 7.42711 193.223 7.37966 193.185 7.34084C193.146 7.30202 193.098 7.28045 193.042 7.28045C192.986 7.28045 192.939 7.30202 192.9 7.34084C192.861 7.37966 192.844 7.42711 192.844 7.47887V10.4294C192.844 10.4812 192.861 10.5286 192.896 10.5674C192.93 10.6063 192.977 10.6278 193.042 10.6278C193.094 10.6278 193.141 10.6063 193.18 10.5674C193.219 10.5286 193.241 10.4812 193.241 10.4294V8.80316C193.241 8.64787 193.271 8.49689 193.331 8.34591C193.392 8.19494 193.469 8.0569 193.573 7.93612C193.672 7.81102 193.784 7.71612 193.909 7.64279C194.034 7.56946 194.155 7.53495 194.28 7.53495C194.354 7.53495 194.414 7.54789 194.461 7.56946C194.509 7.59103 194.552 7.60397 194.591 7.60397C194.638 7.60397 194.681 7.58671 194.716 7.55221C194.75 7.5177 194.768 7.46593 194.768 7.40123C194.768 7.3279 194.729 7.27182 194.655 7.24162L194.647 7.233Z" fill="#1B52AA"/>
<path d="M197.663 7.35809C197.491 7.24162 197.258 7.18555 196.969 7.18555C196.809 7.18555 196.654 7.21574 196.498 7.27613C196.343 7.33652 196.201 7.41848 196.071 7.5177C195.951 7.61691 195.856 7.72475 195.774 7.84553V7.48319C195.774 7.43142 195.757 7.38397 195.718 7.34515C195.679 7.30633 195.631 7.28476 195.575 7.28476C195.519 7.28476 195.472 7.30633 195.433 7.34515C195.394 7.38397 195.377 7.43142 195.377 7.48319V10.4337C195.377 10.4855 195.394 10.5329 195.429 10.5717C195.463 10.6106 195.511 10.6321 195.575 10.6321C195.627 10.6321 195.675 10.6106 195.713 10.5717C195.752 10.5329 195.774 10.4855 195.774 10.4337V8.51414C195.774 8.33728 195.826 8.17768 195.933 8.03533C196.037 7.88867 196.175 7.7722 196.343 7.68593C196.511 7.59965 196.693 7.55221 196.878 7.55221C197.089 7.55221 197.258 7.59534 197.387 7.68593C197.517 7.77651 197.611 7.88867 197.667 8.03533C197.724 8.18199 197.754 8.3416 197.754 8.51414V10.4337C197.754 10.4855 197.771 10.5329 197.806 10.5717C197.84 10.6106 197.887 10.6321 197.952 10.6321C198.004 10.6321 198.051 10.6106 198.09 10.5717C198.129 10.5329 198.151 10.4855 198.151 10.4337V8.49689C198.151 8.25533 198.112 8.03533 198.034 7.8369C197.957 7.63848 197.831 7.47887 197.659 7.36241L197.663 7.35809Z" fill="#1B52AA"/>
<path d="M199.29 9.98535H199.243C199.169 9.98535 199.113 10.0069 199.07 10.0501C199.031 10.0932 199.01 10.1536 199.01 10.2355V10.3736C199.01 10.4469 199.031 10.5116 199.07 10.5591C199.109 10.6065 199.165 10.6324 199.243 10.6324H199.29C199.363 10.6324 199.424 10.6065 199.463 10.5591C199.502 10.5116 199.523 10.4512 199.523 10.3736V10.2355C199.523 10.1579 199.506 10.0932 199.463 10.0501C199.424 10.0069 199.368 9.98535 199.29 9.98535Z" fill="#1B52AA"/>
<path d="M187.452 13.2207C187.405 13.2207 187.362 13.2336 187.327 13.2552C187.293 13.2768 187.267 13.307 187.254 13.3458L185.973 17.1159L184.873 14.3552C184.856 14.3164 184.83 14.2819 184.795 14.2603C184.761 14.2344 184.722 14.2258 184.679 14.2301C184.636 14.2258 184.597 14.2344 184.562 14.2603C184.528 14.2862 184.506 14.3164 184.493 14.3552L183.389 17.1159L182.095 13.3501C182.082 13.3113 182.056 13.2811 182.022 13.2595C181.987 13.238 181.948 13.225 181.905 13.225C181.858 13.225 181.81 13.2423 181.763 13.2768C181.715 13.3113 181.689 13.3631 181.689 13.4278C181.689 13.445 181.694 13.4709 181.707 13.5054L183.165 17.7241C183.178 17.763 183.199 17.7931 183.234 17.8147C183.268 17.8363 183.298 17.8492 183.337 17.8492C183.376 17.8492 183.415 17.8406 183.454 17.819C183.493 17.7975 183.518 17.7673 183.536 17.7241L184.679 14.9073L185.818 17.7241C185.835 17.7673 185.861 17.8018 185.895 17.819C185.93 17.8363 185.969 17.8492 186.012 17.8492C186.046 17.8492 186.081 17.8406 186.12 17.8147C186.154 17.7931 186.18 17.763 186.193 17.7241L187.651 13.5054C187.66 13.4709 187.664 13.4407 187.664 13.4191C187.664 13.3544 187.642 13.3027 187.603 13.2725C187.56 13.238 187.513 13.2207 187.457 13.2207H187.452Z" fill="#1B52AA"/>
<path d="M190.609 14.631C190.359 14.4757 190.075 14.4023 189.751 14.4023C189.427 14.4023 189.156 14.48 188.906 14.631C188.651 14.7863 188.453 14.9933 188.306 15.2564C188.159 15.5196 188.086 15.8215 188.086 16.158C188.086 16.4945 188.159 16.7921 188.306 17.0595C188.453 17.327 188.651 17.534 188.906 17.685C189.16 17.836 189.44 17.9136 189.751 17.9136C190.062 17.9136 190.359 17.8403 190.609 17.685C190.86 17.534 191.058 17.3227 191.2 17.0595C191.347 16.7921 191.42 16.4945 191.42 16.158C191.42 15.8215 191.347 15.5196 191.2 15.2564C191.054 14.9933 190.86 14.7863 190.609 14.631ZM190.86 16.8741C190.752 17.0811 190.601 17.245 190.407 17.3658C190.217 17.4866 189.997 17.547 189.751 17.547C189.505 17.547 189.298 17.4866 189.104 17.3658C188.91 17.245 188.759 17.0811 188.647 16.8741C188.535 16.667 188.478 16.4297 188.478 16.1623C188.478 15.8949 188.535 15.6576 188.647 15.4462C188.759 15.2392 188.91 15.071 189.104 14.9502C189.298 14.8294 189.514 14.769 189.751 14.769C189.988 14.769 190.217 14.8294 190.407 14.9502C190.596 15.071 190.747 15.2349 190.86 15.4462C190.972 15.6576 191.024 15.8949 191.024 16.1623C191.024 16.4297 190.967 16.667 190.86 16.8741Z" fill="#1B52AA"/>
<path d="M194.07 14.4498C193.996 14.4153 193.919 14.4023 193.841 14.4023C193.651 14.4023 193.483 14.4412 193.328 14.5188C193.172 14.5965 193.047 14.7 192.935 14.8294C192.823 14.9588 192.737 15.0968 192.672 15.2478C192.663 15.2651 192.663 15.2823 192.655 15.2953V14.6957C192.655 14.6439 192.637 14.5965 192.599 14.5576C192.56 14.5188 192.512 14.4972 192.456 14.4972C192.4 14.4972 192.353 14.5188 192.314 14.5576C192.275 14.5965 192.258 14.6439 192.258 14.6957V17.6462C192.258 17.698 192.275 17.7454 192.31 17.7842C192.344 17.823 192.392 17.8446 192.456 17.8446C192.508 17.8446 192.555 17.823 192.594 17.7842C192.633 17.7454 192.655 17.698 192.655 17.6462V16.02C192.655 15.8647 192.685 15.7137 192.745 15.5627C192.806 15.4117 192.883 15.2737 192.987 15.1529C193.09 15.0321 193.198 14.9329 193.323 14.8596C193.444 14.7863 193.569 14.7517 193.69 14.7517C193.763 14.7517 193.824 14.7647 193.871 14.7863C193.919 14.8078 193.962 14.8208 194.001 14.8208C194.048 14.8208 194.091 14.8035 194.126 14.769C194.16 14.7345 194.177 14.6827 194.177 14.618C194.177 14.5447 194.139 14.4886 194.065 14.4584L194.07 14.4498Z" fill="#1B52AA"/>
<path d="M196.041 15.9726L197.399 14.8165C197.447 14.7734 197.473 14.7216 197.473 14.6656C197.473 14.6181 197.451 14.5707 197.412 14.5318C197.373 14.493 197.33 14.4714 197.283 14.4714C197.231 14.4714 197.184 14.493 197.145 14.5361L195.243 16.1753V13.173C195.243 13.1213 195.225 13.0738 195.186 13.035C195.148 12.9962 195.1 12.9746 195.044 12.9746C194.988 12.9746 194.941 12.9962 194.902 13.035C194.863 13.0738 194.846 13.1213 194.846 13.173V17.6549C194.846 17.7067 194.863 17.7541 194.902 17.7929C194.941 17.8318 194.988 17.8533 195.044 17.8533C195.1 17.8533 195.148 17.8318 195.186 17.7929C195.225 17.7541 195.243 17.7067 195.243 17.6549V16.6628L195.739 16.24L197.192 17.7843C197.231 17.8318 197.279 17.8576 197.339 17.8576C197.373 17.8576 197.417 17.8404 197.464 17.8059C197.512 17.7714 197.537 17.7239 197.537 17.6592C197.537 17.6031 197.52 17.5514 197.477 17.5082L196.045 15.9812L196.041 15.9726Z" fill="#1B52AA"/>
<path d="M198.427 17.2021H198.379C198.306 17.2021 198.25 17.2237 198.207 17.2669C198.168 17.31 198.146 17.3704 198.146 17.4523V17.5904C198.146 17.6637 198.164 17.7284 198.207 17.7759C198.246 17.8233 198.306 17.8492 198.379 17.8492H198.427C198.5 17.8492 198.556 17.8233 198.599 17.7759C198.638 17.7284 198.66 17.668 198.66 17.5904V17.4523C198.66 17.3747 198.638 17.31 198.599 17.2669C198.561 17.2237 198.505 17.2021 198.427 17.2021Z" fill="#1B52AA"/>
<path d="M185.062 24.0565C185.015 24.0263 184.976 23.9832 184.946 23.9314C184.916 23.8797 184.894 23.7977 184.877 23.6942C184.86 23.5864 184.851 23.4397 184.847 23.2542C184.842 23.0342 184.795 22.8487 184.713 22.6891C184.627 22.5338 184.514 22.4087 184.372 22.3225C184.307 22.2836 184.243 22.2534 184.174 22.2276C184.32 22.1758 184.454 22.0982 184.575 21.9946C184.704 21.8825 184.799 21.7444 184.872 21.5848C184.942 21.4209 184.976 21.2441 184.976 21.0499C184.976 20.8127 184.92 20.6013 184.808 20.4115C184.696 20.2217 184.54 20.0751 184.342 19.9672C184.144 19.8594 183.919 19.8076 183.669 19.8076H181.892C181.84 19.8076 181.793 19.8292 181.754 19.868C181.715 19.9068 181.693 19.9543 181.693 20.006V24.2248C181.693 24.2765 181.715 24.324 181.754 24.3628C181.797 24.4016 181.849 24.4232 181.913 24.4232C181.969 24.4232 182.017 24.4016 182.051 24.3628C182.086 24.324 182.103 24.2765 182.103 24.2248V22.4519H183.565C183.66 22.4519 183.755 22.4648 183.859 22.4864C183.962 22.5123 184.057 22.5511 184.144 22.6115C184.23 22.6719 184.299 22.7538 184.355 22.866C184.411 22.9781 184.437 23.1162 184.437 23.2887C184.437 23.5475 184.458 23.7503 184.497 23.8969C184.54 24.0436 184.592 24.1514 184.657 24.2248C184.722 24.2981 184.782 24.3542 184.842 24.3887C184.877 24.4059 184.911 24.4146 184.95 24.4146C184.989 24.4146 185.019 24.4059 185.054 24.393C185.088 24.3757 185.11 24.3542 185.127 24.3154C185.153 24.2722 185.157 24.2248 185.144 24.1773C185.131 24.1299 185.101 24.091 185.054 24.0652L185.062 24.0565ZM183.691 22.0766H182.107V20.1872H183.634C183.906 20.1872 184.126 20.2692 184.294 20.4331C184.463 20.597 184.549 20.8041 184.549 21.0543C184.549 21.2527 184.51 21.4252 184.428 21.5762C184.346 21.7272 184.243 21.8436 184.109 21.9299C183.98 22.0162 183.837 22.0636 183.686 22.0766H183.691Z" fill="#1B52AA"/>
<path d="M188.372 21.3693C188.229 21.2356 188.066 21.1364 187.884 21.0674C187.703 20.9984 187.513 20.9639 187.319 20.9639C187.056 20.9639 186.806 21.0372 186.573 21.1795C186.336 21.3219 186.146 21.5246 185.999 21.7878C185.853 22.0509 185.779 22.3701 185.779 22.7411C185.779 23.0862 185.853 23.3924 185.999 23.6513C186.142 23.9101 186.344 24.1128 186.603 24.2595C186.862 24.4061 187.16 24.4752 187.5 24.4752C187.751 24.4752 187.979 24.4191 188.191 24.3026C188.402 24.1861 188.575 24.0481 188.704 23.8928C188.747 23.854 188.769 23.8065 188.769 23.7548C188.769 23.7116 188.751 23.6728 188.717 23.6383C188.687 23.6038 188.648 23.5866 188.6 23.5866C188.553 23.5866 188.506 23.6081 188.454 23.6469C188.393 23.7246 188.316 23.8022 188.225 23.8756C188.135 23.9489 188.027 24.005 187.902 24.0481C187.777 24.0912 187.638 24.1128 187.488 24.1128C187.211 24.1128 186.97 24.0524 186.771 23.9273C186.573 23.8065 186.418 23.6383 186.314 23.4269C186.211 23.2199 186.159 22.987 186.159 22.7281H188.648C188.7 22.7281 188.747 22.7109 188.786 22.6721C188.825 22.6332 188.846 22.5901 188.851 22.5383C188.842 22.2838 188.795 22.0595 188.708 21.8654C188.622 21.6713 188.51 21.5074 188.367 21.3737L188.372 21.3693ZM186.267 22.1027C186.336 21.9301 186.431 21.7878 186.543 21.6756C186.655 21.5635 186.78 21.4815 186.918 21.4297C187.056 21.378 187.194 21.3521 187.324 21.3521C187.5 21.3521 187.669 21.3909 187.833 21.4642C187.997 21.5376 188.135 21.6497 188.247 21.7921C188.359 21.9387 188.428 22.1113 188.445 22.3183V22.3701H186.198C186.215 22.2752 186.237 22.1846 186.271 22.1027H186.267Z" fill="#1B52AA"/>
<path d="M192.097 21.2356C191.869 21.089 191.601 21.0156 191.303 21.0156C191.152 21.0156 191.01 21.0372 190.876 21.076C190.743 21.1148 190.613 21.1752 190.501 21.2486C190.389 21.3262 190.285 21.4168 190.204 21.5246C190.165 21.5721 190.13 21.6282 190.1 21.6799V21.2313C190.1 21.1752 190.083 21.1278 190.044 21.0846C190.005 21.0458 189.958 21.0243 189.902 21.0243C189.841 21.0243 189.794 21.0458 189.755 21.0846C189.72 21.1235 189.703 21.1709 189.703 21.2313V25.5277C189.703 25.5794 189.72 25.6269 189.759 25.6657C189.798 25.7045 189.845 25.7261 189.902 25.7261C189.958 25.7261 190.005 25.7045 190.044 25.6657C190.083 25.6269 190.1 25.5794 190.1 25.5277V23.785C190.13 23.8281 190.156 23.8756 190.191 23.9144C190.277 24.0222 190.38 24.1171 190.493 24.1948C190.605 24.2724 190.734 24.3371 190.872 24.3846C191.01 24.432 191.157 24.4536 191.312 24.4536C191.601 24.4536 191.864 24.3803 192.097 24.2293C192.33 24.0783 192.516 23.8756 192.649 23.6167C192.783 23.3579 192.852 23.0603 192.852 22.7281C192.852 22.396 192.783 22.0983 192.649 21.8395C192.516 21.5807 192.33 21.3823 192.101 21.2313L192.097 21.2356ZM192.309 23.4269C192.201 23.634 192.063 23.7936 191.882 23.9101C191.705 24.0265 191.498 24.0826 191.265 24.0826C191.032 24.0826 190.82 24.0222 190.639 23.9101C190.458 23.7979 190.316 23.634 190.216 23.4269C190.113 23.2199 190.061 22.987 190.061 22.7281C190.061 22.4693 190.113 22.2321 190.216 22.0336C190.32 21.8352 190.462 21.6756 190.639 21.5591C190.816 21.4427 191.027 21.3866 191.265 21.3866C191.502 21.3866 191.705 21.447 191.882 21.5591C192.058 21.6756 192.201 21.8352 192.309 22.038C192.412 22.2407 192.468 22.4693 192.468 22.7281C192.468 22.987 192.416 23.2199 192.309 23.4269Z" fill="#1B52AA"/>
<path d="M196.089 21.3693C195.946 21.2356 195.782 21.1364 195.601 21.0674C195.42 20.9984 195.23 20.9639 195.036 20.9639C194.773 20.9639 194.523 21.0372 194.29 21.1795C194.057 21.3219 193.863 21.5246 193.716 21.7878C193.569 22.0509 193.496 22.3701 193.496 22.7411C193.496 23.0862 193.569 23.3924 193.716 23.6513C193.863 23.9101 194.061 24.1128 194.32 24.2595C194.579 24.4061 194.876 24.4752 195.217 24.4752C195.467 24.4752 195.7 24.4191 195.907 24.3026C196.114 24.1861 196.291 24.0481 196.421 23.8928C196.464 23.854 196.485 23.8065 196.485 23.7548C196.485 23.7116 196.468 23.6728 196.434 23.6383C196.399 23.6038 196.36 23.5866 196.317 23.5866C196.27 23.5866 196.218 23.6081 196.171 23.6469C196.11 23.7246 196.032 23.8022 195.942 23.8756C195.851 23.9489 195.743 24.005 195.618 24.0481C195.493 24.0912 195.355 24.1128 195.204 24.1128C194.928 24.1128 194.691 24.0524 194.488 23.9273C194.29 23.8065 194.135 23.6383 194.031 23.4269C193.927 23.2199 193.876 22.987 193.876 22.7281H196.365C196.416 22.7281 196.464 22.7109 196.503 22.6721C196.542 22.6332 196.563 22.5901 196.567 22.5383C196.559 22.2838 196.511 22.0595 196.425 21.8654C196.339 21.6713 196.227 21.5074 196.084 21.3737L196.089 21.3693ZM193.984 22.1027C194.053 21.9301 194.147 21.7878 194.255 21.6756C194.367 21.5635 194.493 21.4815 194.631 21.4297C194.769 21.378 194.902 21.3521 195.036 21.3521C195.213 21.3521 195.381 21.3909 195.545 21.4642C195.709 21.5376 195.847 21.6497 195.959 21.7921C196.076 21.9387 196.14 22.1113 196.158 22.3183V22.3701H193.91C193.927 22.2752 193.953 22.1846 193.984 22.1027Z" fill="#1B52AA"/>
<path d="M200.203 21.0415C200.147 21.0415 200.099 21.0631 200.061 21.1019C200.022 21.1407 200.004 21.1882 200.004 21.2486V21.6627C199.94 21.5419 199.858 21.4297 199.754 21.3348C199.629 21.2227 199.487 21.1321 199.323 21.0631C199.159 20.9984 198.982 20.9639 198.792 20.9639C198.499 20.9639 198.236 21.0372 198.003 21.1882C197.77 21.3392 197.585 21.5419 197.451 21.805C197.313 22.0682 197.248 22.3701 197.248 22.7109C197.248 23.0517 197.317 23.345 197.451 23.6124C197.585 23.8799 197.77 24.0912 198.003 24.2465C198.236 24.4018 198.503 24.4752 198.805 24.4752C198.991 24.4752 199.163 24.4407 199.323 24.3716C199.483 24.3026 199.621 24.2163 199.741 24.1042C199.858 24.0007 199.944 23.8842 200.013 23.7634V24.2077C200.013 24.2595 200.03 24.3069 200.069 24.3458C200.108 24.3846 200.155 24.4061 200.212 24.4061C200.263 24.4061 200.311 24.3846 200.35 24.3458C200.388 24.3069 200.41 24.2595 200.41 24.2077V21.2443C200.41 21.1882 200.393 21.1407 200.354 21.0976C200.315 21.0588 200.268 21.0372 200.212 21.0372L200.203 21.0415ZM199.452 23.9273C199.271 24.0481 199.064 24.1085 198.831 24.1085C198.598 24.1085 198.391 24.0481 198.214 23.9273C198.037 23.8065 197.891 23.6383 197.787 23.4269C197.684 23.2156 197.632 22.974 197.632 22.7109C197.632 22.4478 197.684 22.2062 197.787 21.9991C197.891 21.7921 198.033 21.6282 198.214 21.5117C198.395 21.3952 198.603 21.3348 198.831 21.3348C199.06 21.3348 199.271 21.3952 199.452 21.5203C199.633 21.6411 199.776 21.8093 199.879 22.0164C199.983 22.2234 200.035 22.4564 200.035 22.7152C200.035 22.974 199.983 23.2156 199.879 23.4313C199.776 23.6426 199.633 23.8109 199.452 23.9316V23.9273Z" fill="#1B52AA"/>
<path d="M202.753 21.0548H202.093V20.3215C202.093 20.2697 202.076 20.2223 202.037 20.1834C201.998 20.1446 201.95 20.123 201.894 20.123C201.838 20.123 201.791 20.1446 201.752 20.1834C201.713 20.2223 201.696 20.2697 201.696 20.3215V21.0548H201.217C201.165 21.0548 201.118 21.072 201.083 21.1066C201.045 21.1411 201.027 21.1842 201.027 21.2403C201.027 21.2877 201.045 21.3309 201.083 21.3697C201.122 21.4085 201.165 21.4258 201.217 21.4258H201.696V23.6516C201.696 23.85 201.722 24.001 201.778 24.1045C201.834 24.2081 201.903 24.2814 201.985 24.3245C202.067 24.3677 202.149 24.3892 202.227 24.3979C202.304 24.4022 202.365 24.4065 202.403 24.4065C202.498 24.4065 202.585 24.3849 202.654 24.3461C202.723 24.3029 202.757 24.2512 202.757 24.1908C202.757 24.1433 202.744 24.1045 202.714 24.0743C202.684 24.0441 202.654 24.0269 202.61 24.0269C202.576 24.0269 202.541 24.0312 202.516 24.0441C202.49 24.0571 202.455 24.0614 202.421 24.0614C202.369 24.0614 202.313 24.0528 202.261 24.0312C202.209 24.0096 202.166 23.9708 202.132 23.9104C202.097 23.85 202.08 23.7551 202.08 23.6343V21.4258H202.74C202.792 21.4258 202.835 21.4085 202.869 21.374C202.904 21.3395 202.921 21.2964 202.921 21.2489C202.921 21.1971 202.904 21.1497 202.869 21.1152C202.835 21.0764 202.792 21.0591 202.74 21.0591L202.753 21.0548Z" fill="#1B52AA"/>
<path d="M203.939 23.8323C203.9 23.7891 203.844 23.7676 203.767 23.7676H203.719C203.646 23.7676 203.59 23.7891 203.547 23.8323C203.508 23.8754 203.486 23.9358 203.486 24.0178V24.1558C203.486 24.2291 203.504 24.2938 203.547 24.3413C203.586 24.3887 203.646 24.4146 203.719 24.4146H203.767C203.84 24.4146 203.896 24.3887 203.939 24.3413C203.978 24.2938 204 24.2335 204 24.1558V24.0178C204 23.9401 203.978 23.8754 203.939 23.8323Z" fill="#1B52AA"/>
<path d="M26.477 19.4516C26.257 19.4516 26.037 19.3654 25.8688 19.1971C25.5323 18.8607 25.5323 18.3128 25.8688 17.9764C29.0911 14.7541 29.2291 9.58638 26.188 6.20449L25.528 5.54451C22.8406 3.02966 19.3379 1.67519 15.6498 1.72695C11.953 1.78303 8.47624 3.25397 5.85787 5.86803C5.52141 6.20449 4.97358 6.20449 4.63711 5.86803C4.30065 5.53157 4.30065 4.98374 4.63711 4.64727C7.57469 1.71401 11.4742 0.0618902 15.6239 0.00149944C19.7564 -0.0545777 23.7033 1.46382 26.7186 4.29356C26.7272 4.29787 26.7315 4.3065 26.7401 4.31081L27.426 4.99668C27.426 4.99668 27.4476 5.01825 27.4562 5.02687C31.1314 9.09462 30.9675 15.3149 27.0895 19.1928C26.9213 19.3611 26.7013 19.4473 26.4813 19.4473L26.477 19.4516Z" fill="#0D3B66"/>
<path d="M5.25063 27.3538C5.03063 27.3538 4.81064 27.2675 4.64241 27.0993C-1.55196 20.9092 -1.55196 10.8369 4.63809 4.64688C4.97456 4.31042 5.52239 4.31042 5.85885 4.64688C6.19531 4.98334 6.19531 5.53117 5.85885 5.86763C0.341723 11.3848 0.341723 20.3614 5.85885 25.8785C6.19531 26.215 6.19531 26.7628 5.85885 27.0993C5.69062 27.2675 5.47062 27.3538 5.25063 27.3538Z" fill="#F3B53F"/>
<path d="M19.8142 22.2129C17.0664 22.2129 14.4825 21.1432 12.5414 19.1977C12.2049 18.8613 12.2049 18.3134 12.5414 17.977C12.8779 17.6405 13.4257 17.6405 13.7622 17.977C15.3798 19.5946 17.528 20.4832 19.8185 20.4832C22.109 20.4832 24.2572 19.5946 25.8748 17.977C26.2113 17.6405 26.7591 17.6405 27.0956 17.977C27.432 18.3134 27.432 18.8613 27.0956 19.1977C25.1545 21.1388 22.5706 22.2129 19.8228 22.2129H19.8142Z" fill="#0D3B66"/>
<path d="M13.1488 19.4518C12.9288 19.4518 12.7088 19.3655 12.5406 19.1973C10.5995 17.2562 9.52539 14.6723 9.52539 11.9245C9.52539 9.17675 10.5952 6.59289 12.5406 4.65176C12.8771 4.3153 13.4249 4.3153 13.7614 4.65176C14.0978 4.98822 14.0978 5.53605 13.7614 5.87252C12.1438 7.49013 11.2552 9.63831 11.2552 11.9288C11.2552 14.2194 12.1438 16.3676 13.7614 17.9852C14.0978 18.3216 14.0978 18.8695 13.7614 19.2059C13.5931 19.3742 13.3731 19.4604 13.1531 19.4604L13.1488 19.4518Z" fill="#B1CF41"/>
<path d="M26.478 27.3543C26.258 27.3543 26.038 27.2681 25.8697 27.0998C25.5333 26.7634 25.5333 26.2155 25.8697 25.8791C28.4838 23.265 29.9547 19.7882 30.0108 16.0871C30.0669 12.4033 28.7081 8.89633 26.1933 6.20894L25.516 5.5317C25.1796 5.19523 25.1796 4.6474 25.516 4.31094C25.8525 3.97448 26.4003 3.97448 26.7368 4.31094L27.4226 4.99681C27.4226 4.99681 27.4356 5.00975 27.4399 5.01838C30.2696 8.0336 31.7923 11.9719 31.732 16.113C31.6716 20.2627 30.0194 24.1622 27.0862 27.0998C26.9179 27.2681 26.698 27.3543 26.478 27.3543Z" fill="#5CC8C0"/>
<path d="M13.1496 6.12273C12.9296 6.12273 12.7096 6.03646 12.5414 5.86822C12.2049 5.53176 12.2049 4.98393 12.5414 4.64747C16.4194 0.769518 22.6396 0.609914 26.7074 4.28081C27.0611 4.60002 27.087 5.14785 26.7677 5.49725C26.4485 5.85097 25.905 5.87685 25.5513 5.55764C22.1694 2.49928 16.9888 2.633 13.7622 5.86391C13.5939 6.03214 13.3739 6.11841 13.1539 6.11841L13.1496 6.12273Z" fill="#B1CF41"/>
<path d="M15.8631 31.7492C11.6228 31.7492 7.63704 30.097 4.63907 27.0991C4.3026 26.7626 4.3026 26.2148 4.63907 25.8783C4.97553 25.5419 5.52336 25.5419 5.85982 25.8783C8.53427 28.5528 12.0844 30.0237 15.8631 30.0237C19.6419 30.0237 23.1963 28.5528 25.8664 25.8783C26.2029 25.5419 26.7507 25.5419 27.0872 25.8783C27.4236 26.2148 27.4236 26.7626 27.0872 27.0991C24.0892 30.097 20.1034 31.7492 15.8631 31.7492Z" fill="#D72E6D"/>
<path d="M54.7411 22.1213C54.4737 22.1213 54.2062 22.0177 53.9992 21.815C53.5894 21.4052 53.5894 20.7409 53.9992 20.3354C56.4795 17.8551 56.4795 13.8218 53.9992 11.3458C51.5188 8.86979 47.4899 8.86548 45.0096 11.3458C44.5998 11.7556 43.9355 11.7556 43.53 11.3458C43.1202 10.936 43.1202 10.2717 43.53 9.86624C46.8256 6.57063 52.1875 6.57063 55.4831 9.86624C57.0791 11.4623 57.9591 13.5846 57.9591 15.8449C57.9591 18.1053 57.0791 20.2276 55.4831 21.8236C55.2803 22.0264 55.0086 22.1299 54.7411 22.1299V22.1213Z" fill="#0D3B66"/>
<path d="M76.892 24.3299C76.3139 24.3299 75.8438 23.8597 75.8438 23.2817V15.1117C75.8438 14.5337 76.3139 14.0635 76.892 14.0635C77.47 14.0635 77.9402 14.5337 77.9402 15.1117V23.2817C77.9402 23.8597 77.47 24.3299 76.892 24.3299Z" fill="#0D3B66"/>
<path d="M84.3216 18.3893H76.8978C76.3198 18.3893 75.8496 17.9191 75.8496 17.3411C75.8496 16.7631 76.3198 16.2929 76.8978 16.2929H84.3216C86.2023 16.2929 87.7293 14.7659 87.7293 12.8851C87.7293 12.3071 88.1995 11.8369 88.7775 11.8369C89.3556 11.8369 89.8258 12.3071 89.8258 12.8851C89.8258 15.9176 87.3584 18.3893 84.3216 18.3893Z" fill="#0D3B66"/>
<path d="M97.6849 24.3291C97.1069 24.3291 96.6367 23.8589 96.6367 23.2809V8.42907C96.6367 7.85104 97.1069 7.38086 97.6849 7.38086C98.263 7.38086 98.7331 7.85104 98.7331 8.42907V23.2809C98.7331 23.8589 98.263 24.3291 97.6849 24.3291Z" fill="#0D3B66"/>
<path d="M151.89 24.3291C151.312 24.3291 150.842 23.8589 150.842 23.2809V8.42907C150.842 7.85104 151.312 7.38086 151.89 7.38086C152.468 7.38086 152.938 7.85104 152.938 8.42907V23.2809C152.938 23.8589 152.468 24.3291 151.89 24.3291Z" fill="#0D3B66"/>
<path d="M113.279 24.3291C109.427 24.3291 106.291 21.1931 106.291 17.341V8.42907C106.291 7.85104 106.761 7.38086 107.339 7.38086C107.917 7.38086 108.387 7.85104 108.387 8.42907V17.341C108.387 20.037 110.583 22.2327 113.279 22.2327C113.857 22.2327 114.327 22.7029 114.327 23.2809C114.327 23.8589 113.857 24.3291 113.279 24.3291Z" fill="#0D3B66"/>
<path d="M124.415 24.3291C123.837 24.3291 123.367 23.8589 123.367 23.2809V8.42907C123.367 7.85104 123.837 7.38086 124.415 7.38086C124.993 7.38086 125.464 7.85104 125.464 8.42907V23.2809C125.464 23.8589 124.993 24.3291 124.415 24.3291Z" fill="#0D3B66"/>
<path d="M136.294 24.0185C135.716 24.0185 135.246 23.5483 135.246 22.9703V8.42907C135.246 7.85104 135.716 7.38086 136.294 7.38086C136.872 7.38086 137.343 7.85104 137.343 8.42907V22.9703C137.343 23.5483 136.872 24.0185 136.294 24.0185Z" fill="#0D3B66"/>
<path d="M136.301 24.3293C135.994 24.3293 135.688 24.1956 135.481 23.9368L123.601 9.08496C123.239 8.63202 123.312 7.97204 123.765 7.61401C124.214 7.25166 124.878 7.325 125.236 7.77793L137.116 22.6297C137.478 23.0827 137.405 23.7427 136.952 24.1007C136.758 24.256 136.529 24.3293 136.296 24.3293H136.301Z" fill="#0D3B66"/>
<path d="M141.494 24.3297C140.915 24.3297 140.445 23.8595 140.445 23.2815V14.3695C140.445 13.7915 140.915 13.3213 141.494 13.3213C142.072 13.3213 142.542 13.7915 142.542 14.3695V23.2815C142.542 23.8595 142.072 24.3297 141.494 24.3297Z" fill="#0D3B66"/>
<path d="M168.226 24.3293C167.648 24.3293 167.178 23.8591 167.178 23.281V17.3412C167.178 16.7632 167.648 16.293 168.226 16.293C168.804 16.293 169.274 16.7632 169.274 17.3412V23.281C169.274 23.8591 168.804 24.3293 168.226 24.3293Z" fill="#0D3B66"/>
<path d="M168.225 18.3895C168.026 18.3895 167.824 18.3334 167.647 18.2127C167.164 17.8935 167.034 17.2421 167.358 16.759L173.298 7.84702C173.617 7.36389 174.268 7.23448 174.751 7.55801C175.234 7.87721 175.364 8.52857 175.04 9.0117L169.101 17.9236C168.898 18.2256 168.566 18.3895 168.229 18.3895H168.225Z" fill="#0D3B66"/>
<path d="M49.5055 24.2862C47.34 24.2862 45.1746 23.4623 43.5268 21.8145C41.9308 20.2185 41.0508 18.0962 41.0508 15.8358C41.0508 13.5755 41.9308 11.4532 43.5268 9.85715C43.9366 9.44736 44.6009 9.44736 45.0064 9.85715C45.4119 10.2669 45.4162 10.9312 45.0064 11.3367C42.526 13.8171 42.526 17.8503 45.0064 20.3263C47.4867 22.8067 51.5156 22.8067 53.996 20.3263C54.4058 19.9165 55.0701 19.9165 55.4755 20.3263C55.8853 20.7361 55.8853 21.4004 55.4755 21.8059C53.8277 23.4537 51.6623 24.2776 49.4969 24.2776L49.5055 24.2862Z" fill="#0D3B66"/>
<path d="M76.892 15.896C76.3139 15.896 75.8438 15.4258 75.8438 14.8477V8.42907C75.8438 7.85104 76.3139 7.38086 76.892 7.38086C77.47 7.38086 77.9402 7.85104 77.9402 8.42907V14.8477C77.9402 15.4258 77.47 15.896 76.892 15.896Z" fill="#0D3B66"/>
<path d="M88.7775 13.9333C88.1995 13.9333 87.7293 13.4631 87.7293 12.885C87.7293 11.0043 86.2023 9.47728 84.3216 9.47728H76.8978C76.3198 9.47728 75.8496 9.0071 75.8496 8.42907C75.8496 7.85104 76.3198 7.38086 76.8978 7.38086H84.3216C87.354 7.38086 89.8258 9.84825 89.8258 12.885C89.8258 13.4631 89.3556 13.9333 88.7775 13.9333Z" fill="#0D3B66"/>
<path d="M60.7298 24.3299C60.1518 24.3299 59.6816 23.8597 59.6816 23.2817V15.1117C59.6816 14.5337 60.1518 14.0635 60.7298 14.0635C61.3079 14.0635 61.7781 14.5337 61.7781 15.1117V23.2817C61.7781 23.8597 61.3079 24.3299 60.7298 24.3299Z" fill="#0D3B66"/>
<path d="M68.1575 18.3893H60.7338C60.1557 18.3893 59.6855 17.9191 59.6855 17.3411C59.6855 16.7631 60.1557 16.2929 60.7338 16.2929H68.1575C70.0382 16.2929 71.5653 14.7659 71.5653 12.8851C71.5653 12.3071 72.0355 11.8369 72.6135 11.8369C73.1915 11.8369 73.6617 12.3071 73.6617 12.8851C73.6617 15.9176 71.1943 18.3893 68.1575 18.3893Z" fill="#0D3B66"/>
<path d="M60.7298 15.896C60.1518 15.896 59.6816 15.4258 59.6816 14.8477V8.42907C59.6816 7.85104 60.1518 7.38086 60.7298 7.38086C61.3079 7.38086 61.7781 7.85104 61.7781 8.42907V14.8477C61.7781 15.4258 61.3079 15.896 60.7298 15.896Z" fill="#0D3B66"/>
<path d="M72.6135 13.9333C72.0355 13.9333 71.5653 13.4631 71.5653 12.885C71.5653 11.0043 70.0382 9.47728 68.1575 9.47728H60.7338C60.1557 9.47728 59.6855 9.0071 59.6855 8.42907C59.6855 7.85104 60.1557 7.38086 60.7338 7.38086H68.1575C71.19 7.38086 73.6617 9.84825 73.6617 12.885C73.6617 13.4631 73.1915 13.9333 72.6135 13.9333Z" fill="#0D3B66"/>
<path d="M103.623 9.47728H91.7435C91.1655 9.47728 90.6953 9.0071 90.6953 8.42907C90.6953 7.85104 91.1655 7.38086 91.7435 7.38086H103.623C104.201 7.38086 104.671 7.85104 104.671 8.42907C104.671 9.0071 104.201 9.47728 103.623 9.47728Z" fill="#0D3B66"/>
<path d="M113.279 24.3291C112.701 24.3291 112.23 23.8589 112.23 23.2809C112.23 22.7029 112.701 22.2327 113.279 22.2327C115.975 22.2327 118.17 20.037 118.17 17.341V8.42907C118.17 7.85104 118.641 7.38086 119.219 7.38086C119.797 7.38086 120.267 7.85104 120.267 8.42907V17.341C120.267 21.1931 117.131 24.3291 113.279 24.3291Z" fill="#0D3B66"/>
<path d="M141.494 16.4654C140.915 16.4654 140.445 15.9952 140.445 15.4171V8.42907C140.445 7.85104 140.915 7.38086 141.494 7.38086C142.072 7.38086 142.542 7.85104 142.542 8.42907V15.4171C142.542 15.9952 142.072 16.4654 141.494 16.4654Z" fill="#0D3B66"/>
<path d="M157.828 9.47728H145.949C145.371 9.47728 144.9 9.0071 144.9 8.42907C144.9 7.85104 145.371 7.38086 145.949 7.38086H157.828C158.406 7.38086 158.877 7.85104 158.877 8.42907C158.877 9.0071 158.406 9.47728 157.828 9.47728Z" fill="#0D3B66"/>
<path d="M168.225 18.3894C167.884 18.3894 167.556 18.2255 167.353 17.9235L161.413 9.01155C161.094 8.52843 161.224 7.88138 161.702 7.55786C162.186 7.23434 162.833 7.36806 163.156 7.84687L169.096 16.7588C169.415 17.2419 169.286 17.889 168.807 18.2125C168.63 18.3333 168.427 18.3894 168.229 18.3894H168.225Z" fill="#0D3B66"/>
</g>
<defs>
<clipPath id="clip0_684_1561">
<rect width="204" height="31.7483" fill="white"/>
</clipPath>
</defs>
</svg>
