<svg width="34" height="47" viewBox="0 0 34 47" fill="none" xmlns="http://www.w3.org/2000/svg">
<path fill-rule="evenodd" clip-rule="evenodd" d="M0.825466 45.9502L4.80307 35.469L7.42835 35.4252L11.3141 45.4144L15.2833 35.5044L17.9114 35.5217L21.6172 45.3824L24.9956 41.2391L21.8876 35.5488L24.7507 35.5587L26.722 39.0239L29.3295 35.5562L31.8929 35.5907L28.8464 40.7434L31.8929 46.0707H29.2261L26.7 42.4327L24.5261 45.948L19.386 45.9327L18.3662 43.4187L14.8234 43.3344L13.7061 46.2852L8.8465 46.0707L8.00578 43.2953L4.2409 43.3661L3.4821 45.8687L0.825466 45.9502ZM4.56577 41.7701L7.57836 41.7605L6.08562 37.8229L4.56577 41.7701ZM14.9833 41.6856H17.9148L16.6675 37.736L14.9833 41.6856ZM16.6675 33.8991C7.46225 33.8991 0 26.3719 0 17.0863C0 7.80098 7.46225 0.273438 16.6675 0.273438C25.8728 0.273438 33.3351 7.8007 33.3351 17.0863C33.3351 26.3716 25.8728 33.8991 16.6675 33.8991ZM6.56814 27.3788L8.57445 29.2488L11.1432 30.436L13.4055 31.2544L16.5554 31.6157L19.5781 31.2544L22.0828 30.4139L24.8041 28.9772L26.5423 27.4198L25.8434 26.9275L24.3179 25.5525L22.7546 23.846L21.8147 22.2857L20.7158 20.6154L19.5781 18.8989L18.3964 17.4459L16.5554 16.9013L14.5618 17.4459L13.4055 18.8989L12.0297 21.2774L10.4562 23.698L8.72587 25.7826L6.56814 27.3788ZM3.177 20.8799C3.17502 21.5051 3.37192 22.4806 3.61431 23.0527L3.36006 22.4524C3.60357 23.027 4.28384 23.6395 4.50758 23.7074L3.80104 23.4926C4.19118 23.6115 4.88104 23.3665 5.3435 22.9438L5.37344 22.9166C5.83505 22.4951 6.46163 21.7159 6.77549 21.1724L7.57355 19.7904C7.95398 19.1383 8.34854 18.4946 8.75695 17.8598L9.34568 16.9536C9.68666 16.4288 10.3011 15.6276 10.7206 15.1605L10.9799 14.8722C11.3983 14.4068 12.1735 13.7716 12.7108 13.4539L13.1402 13.2002C13.6778 12.8824 14.6036 12.4914 15.2045 12.3279L15.2302 12.3208C15.8327 12.1568 16.8254 12.075 17.4433 12.1378L17.0814 12.101C17.7012 12.1638 18.6851 12.3709 19.2798 12.5636L19.5651 12.6561C20.1592 12.8485 21.0319 13.3269 21.5155 13.7255L21.5683 13.7691C22.0511 14.1672 22.7619 14.8838 23.1546 15.3687L23.202 15.427C23.5953 15.9122 24.1894 16.7307 24.5292 17.2546L24.5976 17.3604C24.9374 17.8844 25.4366 18.7623 25.7143 19.3233L25.7324 19.3595C26.0703 20.0341 26.4249 20.7001 26.796 21.3569L26.837 21.4285C27.1474 21.9714 27.7311 22.7902 28.1455 23.2623L27.8009 22.8691C28.213 23.3393 29.0425 23.816 29.6541 23.9345L28.5472 23.7201C29.1586 23.8386 29.834 23.4612 30.0558 22.8787L29.8866 23.3229C30.1083 22.7401 30.3583 21.7649 30.4454 21.1441L30.5598 20.3274C30.6465 19.7072 30.6564 18.7 30.5824 18.081L30.5456 17.7755C30.4716 17.155 30.2482 16.1733 30.0473 15.5837L29.8196 14.9158C29.6185 14.3256 29.1546 13.4401 28.7823 12.9362L29.0978 13.3634C28.6509 12.7563 28.2101 12.1447 27.7754 11.5287L28.0921 11.9797C27.7339 11.4696 27.0573 10.7306 26.5785 10.3269L26.9364 10.6284C26.361 10.142 25.7889 9.65161 25.2202 9.15728L25.4519 9.35928C24.9821 8.94906 24.1473 8.39652 23.5826 8.12209L23.6628 8.16113C23.1006 7.88784 22.1695 7.48497 21.5878 7.26316L21.9624 7.40603C21.3788 7.18309 20.4107 6.89933 19.7999 6.77145L20.3465 6.88575C19.7358 6.75844 18.7368 6.64697 18.1108 6.63707L15.8229 6.60114C15.1985 6.59123 14.1976 6.69195 13.5869 6.82577L13.4637 6.85293C12.8529 6.98675 11.8958 7.30588 11.3285 7.56475L11.8752 7.31522C11.3071 7.57465 10.4209 8.06127 9.89712 8.4019L8.78237 9.12644C8.25805 9.46708 7.49756 10.1243 7.08455 10.5934L6.98115 10.7102C6.48569 11.2788 6.00527 11.8604 5.5404 12.4544L4.82002 13.3852C4.43752 13.8792 3.94568 14.7502 3.71968 15.335L4.03185 14.5276C3.80641 15.1104 3.51204 16.0791 3.37531 16.6865L3.44707 16.3674C3.30978 16.9768 3.19536 17.9772 3.19141 18.6038L3.18435 19.671C3.18039 20.2968 3.17559 21.3094 3.17361 21.9366L3.177 20.8799Z" fill="#414141"/>
</svg>
