<svg width="64" height="35" viewBox="0 0 64 35" fill="none" xmlns="http://www.w3.org/2000/svg">
<path d="M32.9554 10.8918C34.5975 10.8918 36.1356 11.2034 37.5698 11.8265C39.004 12.4496 40.2719 13.3012 41.3735 14.3813C42.4752 15.4614 43.3274 16.718 43.9302 18.1512C44.5329 19.5844 44.8447 21.1318 44.8655 22.7935C44.8655 24.4344 44.5537 25.9714 43.9302 27.4046C43.3066 28.8378 42.4544 30.1048 41.3735 31.2057C40.2927 32.3065 39.0352 33.1581 37.601 33.7605C36.1668 34.3629 34.6183 34.6744 32.9554 34.6952C31.8538 34.6952 30.7833 34.5498 29.7441 34.259C28.7048 33.9682 27.7383 33.5528 26.8445 33.0127C25.9507 32.4727 25.1193 31.808 24.3502 31.0187C23.5812 30.2295 22.9472 29.3467 22.4483 28.3705C21.9287 29.3467 21.2947 30.2191 20.5465 30.9876C19.7982 31.7561 18.9668 32.4208 18.0522 32.9816C17.1376 33.5424 16.1607 33.9682 15.1215 34.259C14.0822 34.5498 13.0117 34.6952 11.9101 34.6952C10.3096 34.6952 8.79227 34.394 7.35807 33.7917C5.92387 33.1893 4.65595 32.3481 3.55432 31.268C2.45269 30.1879 1.59009 28.952 0.966526 27.5604C0.342961 26.1688 0.0207855 24.6421 0 22.9804V3.22735C0 2.58345 0.239033 2.03302 0.7171 1.57606C1.19517 1.1191 1.74598 0.890625 2.36955 0.890625C2.99311 0.890625 3.54393 1.1191 4.02199 1.57606C4.50006 2.03302 4.74949 2.58345 4.77027 3.22735V13.2597C5.80955 12.4911 6.93196 11.9096 8.13752 11.5149C9.34308 11.1203 10.6006 10.9126 11.9101 10.8918C13.0117 10.8918 14.0822 11.0372 15.1215 11.328C16.1607 11.6188 17.1376 12.0342 18.0522 12.5742C18.9668 13.1143 19.7982 13.7789 20.5465 14.5682C21.2947 15.3575 21.9287 16.2403 22.4483 17.2165C22.968 16.2403 23.6019 15.3679 24.3502 14.5994C25.0985 13.8309 25.9195 13.1662 26.8133 12.6054C27.7071 12.0446 28.684 11.6188 29.7441 11.328C30.8041 11.0372 31.8746 10.8918 32.9554 10.8918ZM11.9101 29.9283C12.887 29.9283 13.812 29.7413 14.685 29.3675C15.5579 28.9936 16.3166 28.4847 16.961 27.8408C17.6053 27.1969 18.1146 26.4388 18.4887 25.5664C18.8628 24.694 19.0499 23.7697 19.0499 22.7935C19.0499 21.7965 18.8628 20.8722 18.4887 20.0206C18.1146 19.169 17.6053 18.4108 16.961 17.7462C16.3166 17.0815 15.5683 16.5726 14.7161 16.2195C13.8639 15.8664 12.9286 15.6795 11.9101 15.6587C10.9124 15.6587 9.98743 15.8456 9.13523 16.2195C8.28302 16.5934 7.52435 17.1023 6.85922 17.7462C6.19408 18.3901 5.68483 19.1378 5.33148 19.9894C4.97813 20.841 4.79106 21.7757 4.77027 22.7935C4.77027 23.7697 4.95734 24.694 5.33148 25.5664C5.70562 26.4388 6.21486 27.1969 6.85922 27.8408C7.50357 28.4847 8.26224 28.9936 9.13523 29.3675C10.0082 29.7413 10.9332 29.9283 11.9101 29.9283ZM32.9554 29.9283C33.9323 29.9283 34.8573 29.7413 35.7303 29.3675C36.6033 28.9936 37.3619 28.4847 38.0063 27.8408C38.6506 27.1969 39.1599 26.4388 39.534 25.5664C39.9082 24.694 40.0952 23.7697 40.0952 22.7935C40.0952 21.7965 39.9082 20.8722 39.534 20.0206C39.1599 19.169 38.6506 18.4108 38.0063 17.7462C37.3619 17.0815 36.6137 16.5726 35.7615 16.2195C34.9092 15.8664 33.9739 15.6795 32.9554 15.6587C31.9785 15.6587 31.0535 15.8456 30.1805 16.2195C29.3076 16.5934 28.5489 17.1023 27.9045 17.7462C27.2602 18.3901 26.7509 19.1482 26.3768 20.0206C26.0027 20.893 25.8156 21.8173 25.8156 22.7935C25.8156 23.7697 26.0027 24.694 26.3768 25.5664C26.7509 26.4388 27.2602 27.1969 27.9045 27.8408C28.5489 28.4847 29.3076 28.9936 30.1805 29.3675C31.0535 29.7413 31.9785 29.9283 32.9554 29.9283ZM63.3542 30.7072C63.6868 31.1018 63.8531 31.5692 63.8531 32.1092C63.8531 32.8154 63.5932 33.3866 63.0736 33.8228C62.554 34.259 61.9408 34.4771 61.2341 34.4771C60.8599 34.4771 60.4962 34.4044 60.1428 34.259C59.7895 34.1136 59.4777 33.8851 59.2075 33.5736L53.6578 26.7503L48.0769 33.5736C47.8274 33.8644 47.526 34.0824 47.1727 34.2278C46.8193 34.3732 46.4452 34.4563 46.0503 34.4771C45.3644 34.4771 44.7616 34.259 44.2419 33.8228C43.7223 33.3866 43.4521 32.8154 43.4313 32.1092C43.4313 31.6107 43.5976 31.1434 43.9302 30.7072L50.3841 22.7623L43.9302 14.8175C43.5976 14.3813 43.4313 13.9139 43.4313 13.4154C43.4313 13.0623 43.5041 12.7404 43.6496 12.4496C43.7951 12.1588 43.9821 11.9096 44.2108 11.7019C44.4394 11.4941 44.72 11.3384 45.0526 11.2345C45.3851 11.1307 45.7073 11.0683 46.0191 11.0476C46.3932 11.0476 46.7674 11.1203 47.1415 11.2657C47.5157 11.4111 47.8274 11.6395 48.0769 11.9511L53.6578 18.8055L59.2075 11.9511C59.4361 11.6603 59.7479 11.4422 60.1428 11.2968C60.5378 11.1514 60.9223 11.0683 61.2964 11.0476C61.629 11.0476 61.9408 11.0995 62.2318 11.2034C62.5228 11.3072 62.793 11.4734 63.0424 11.7019C63.2919 11.9303 63.4893 12.19 63.6348 12.4808C63.7803 12.7716 63.8531 13.0831 63.8531 13.4154C63.8531 13.9139 63.6868 14.3813 63.3542 14.8175L56.8691 22.7623L63.3542 30.7072Z" fill="#F02A2A"/>
</svg>
