<svg width="39" height="39" viewBox="0 0 39 39" fill="none" xmlns="http://www.w3.org/2000/svg">
<g clip-path="url(#clip0_975_3327)">
<path d="M19.1719 34.695C16.1434 34.695 13.1829 33.797 10.6649 32.1144C8.14678 30.4319 6.18417 28.0405 5.02523 25.2425C3.86628 22.4446 3.56305 19.3658 4.15387 16.3955C4.7447 13.4253 6.20304 10.6969 8.3445 8.55543C10.4859 6.41398 13.2143 4.95564 16.1846 4.36481C19.1549 3.77398 22.2337 4.07722 25.0316 5.23616C27.8295 6.39511 30.221 8.35771 31.9035 10.8758C33.586 13.3939 34.4841 16.3543 34.4841 19.3828C34.4841 23.4439 32.8708 27.3386 29.9992 30.2102C27.1276 33.0818 23.2329 34.695 19.1719 34.695ZM19.1719 0.242536C16.6541 0.227292 14.1583 0.711962 11.8292 1.66845C9.50012 2.62494 7.38405 4.03422 5.60367 5.81461C3.82329 7.59499 2.414 9.71106 1.45751 12.0401C0.501025 14.3692 0.0163544 16.865 0.0315987 19.3828C0.0163544 21.9006 0.501025 24.3964 1.45751 26.7255C2.414 29.0546 3.82329 31.1706 5.60367 32.951C7.38405 34.7314 9.50012 36.1407 11.8292 37.0972C14.1583 38.0536 16.6541 38.5383 19.1719 38.5231C21.6897 38.5383 24.1854 38.0536 26.5145 37.0972C28.8436 36.1407 30.9597 34.7314 32.7401 32.951C34.5205 31.1706 35.9297 29.0546 36.8862 26.7255C37.8427 24.3964 38.3274 21.9006 38.3121 19.3828C38.3274 16.865 37.8427 14.3692 36.8862 12.0401C35.9297 9.71106 34.5205 7.59499 32.7401 5.81461C30.9597 4.03422 28.8436 2.62494 26.5145 1.66845C24.1854 0.711962 21.6897 0.227292 19.1719 0.242536Z" fill="#D72E6D"/>
<path d="M25.8505 22.5761C23.9364 22.5761 23.1134 21.4851 23.1134 19.3031C23.1134 17.1211 23.9364 16.0301 25.8505 16.0301C26.9415 16.0301 27.4965 16.5851 28.0325 17.6761L30.5016 16.3172C29.9872 15.4137 29.2212 14.6793 28.2968 14.2035C27.3724 13.7277 26.3296 13.5311 25.2954 13.6375C24.5364 13.6172 23.7813 13.7527 23.0767 14.0359C22.3722 14.319 21.7332 14.7437 21.1994 15.2836C20.6396 15.8024 20.2016 16.4388 19.917 17.147C19.6324 17.8552 19.5082 18.6177 19.5533 19.3796C19.5044 20.1849 19.6257 20.9914 19.9093 21.7466C20.1929 22.5018 20.6325 23.1888 21.1994 23.7627C21.7332 24.3027 22.3722 24.7274 23.0767 25.0105C23.7813 25.2936 24.5364 25.4292 25.2954 25.4088C26.3435 25.3872 27.369 25.1002 28.2761 24.5747C29.1832 24.0492 29.9423 23.3023 30.4824 22.4038L28.0325 21.2937C27.8041 21.6783 27.4867 22.0024 27.107 22.2389C26.7273 22.4754 26.2964 22.6173 25.8505 22.6526V22.5761ZM14.3663 22.5761C12.4523 22.5761 11.6293 21.4851 11.6293 19.3031C11.6293 17.1211 12.4523 16.0301 14.3663 16.0301C15.4573 16.0301 16.0124 16.5851 16.5483 17.6761L19.0174 16.3172C18.503 15.4137 17.737 14.6793 16.8126 14.2035C15.8882 13.7277 14.8454 13.5311 13.8112 13.6375C13.0522 13.6172 12.2971 13.7527 11.5926 14.0359C10.888 14.319 10.2491 14.7437 9.71522 15.2836C9.1554 15.8024 8.71745 16.4388 8.43284 17.147C8.14823 17.8552 8.02403 18.6177 8.06916 19.3796C8.02024 20.1849 8.14154 20.9914 8.42516 21.7466C8.70878 22.5018 9.14835 23.1888 9.71522 23.7627C10.2491 24.3027 10.888 24.7274 11.5926 25.0105C12.2971 25.2936 13.0522 25.4292 13.8112 25.4088C14.8593 25.3872 15.8849 25.1002 16.792 24.5747C17.6991 24.0492 18.4581 23.3023 18.9983 22.4038L16.5483 21.2937C16.3199 21.6783 16.0025 22.0024 15.6228 22.2389C15.2431 22.4754 14.8122 22.6173 14.3663 22.6526V22.5761Z" fill="#D72E6D"/>
</g>
<defs>
<clipPath id="clip0_975_3327">
<rect width="38.2805" height="38.2805" fill="white" transform="translate(0.03125 0.242188)"/>
</clipPath>
</defs>
</svg>
