<svg width="48" height="48" viewBox="0 0 48 48" fill="none" xmlns="http://www.w3.org/2000/svg">
<g clip-path="url(#clip0_975_3325)">
<path d="M18.3983 17.9166H20.7373C21.2274 17.9166 21.5215 18.3087 21.5215 18.7008V34.7773C21.5215 35.1685 21.1294 35.5615 20.7373 35.5615H18.4003C18.0082 35.5615 17.6161 35.1694 17.6161 34.7773V18.7008C17.5181 18.2107 17.9082 17.9166 18.3983 17.9166ZM14.8556 11.0547H11.6207C11.1306 11.0547 10.7385 11.4497 10.7385 11.8458V16.9363H3.09234C2.50418 16.9363 1.91602 17.5294 1.91602 18.1225V34.3754C1.91602 34.9695 2.50418 35.5615 3.09234 35.5615H14.8556C15.2477 35.5615 15.6399 35.2626 15.6399 34.7685V11.8458C15.6399 11.4497 15.3458 11.0547 14.8556 11.0547ZM10.7385 30.9376C10.7385 31.3277 10.3464 31.7218 9.95426 31.7218H7.60161C7.2095 31.7218 6.81739 31.3307 6.81739 30.9376V21.6416C6.81739 21.2495 7.11147 20.8574 7.60161 20.8574H9.95426C10.4444 20.8574 10.7385 21.2495 10.7385 21.6416V30.9376ZM33.4808 24.7785C33.971 24.7785 34.2651 25.3667 34.2651 25.5627V34.7773C34.2651 35.1685 33.8514 35.5615 33.4808 35.5615H24.2663C23.8496 35.5615 23.482 35.1694 23.482 34.7773V32.4384C23.482 31.9483 23.8742 31.6551 24.2663 31.6551L30.344 31.6404V28.6996H24.2663C23.9418 28.6996 23.482 28.3075 23.482 27.9144V18.7008C23.482 18.2107 23.8742 17.9166 24.2663 17.9166H33.4808C33.872 17.9166 34.2651 18.3087 34.2651 18.7008V21.0535C34.2651 21.3476 34.0043 21.8377 33.4808 21.8377H27.4031V24.7785H33.4808ZM47.9889 27.7193V34.7773C47.9889 35.1685 47.5968 35.5615 47.2037 35.5615H37.0098C36.8138 35.5615 36.2256 35.1694 36.2256 34.7773V18.7008C36.2256 18.2107 36.6491 17.9166 37.0402 17.9166H47.2047C47.2047 17.9166 47.9889 17.9166 47.9889 18.7008V24.7785H44.0678V22.6219C44.0678 22.6219 44.1658 21.8377 43.2836 21.8377H40.9309C40.4408 21.8377 40.1467 22.2298 40.1467 22.6219V30.8562C40.1467 31.2474 40.6368 31.6404 40.9309 31.6404H43.2836C43.6747 31.6404 44.0678 31.2483 44.0678 30.8562V27.7193H47.9889Z" fill="#6C6C6C"/>
<path d="M45.8315 15.9367H46.9108V12.8989H47.9891V12.0156H44.8513V12.8989H45.8315V15.9367ZM44.0817 14.4624H42.9613V14.5555C42.9613 14.93 42.8672 15.1172 42.4006 15.1172C41.9349 15.1172 41.8418 14.93 41.8418 14.3702V13.7154C41.8418 13.1547 41.8418 12.9685 42.4006 12.9685C42.7741 12.9685 42.9613 13.0616 42.9613 13.436V13.5292H43.9876V13.436C43.9876 12.4097 43.6142 12.0352 42.4947 12.0352H42.2133C41.0948 12.0352 40.7204 12.4097 40.7204 13.6213V14.3702C40.7204 15.4897 41.0939 15.9563 42.2133 15.9563H42.5888C43.6151 15.9563 43.9886 15.4887 43.9886 14.5545V14.4614L44.0817 14.4624ZM29.8697 12.0352L29.0865 14.878L28.2033 12.0352H26.6358V15.9563H27.7131V13.0155L28.4964 15.9563H29.5766L30.4569 13.1135V15.9563H31.4372V12.0352H29.8697ZM38.8853 12.0352H37.1228L35.9474 15.9563H37.1228L37.3178 15.2701H38.6912L38.8863 15.9563H40.0616L38.8853 12.0352ZM38.1021 14.4859H37.71L38.1021 12.8195L38.4922 14.4859H38.1021ZM34.1869 12.0352H32.3243V15.9563H33.4046V14.878H34.1878C35.2681 14.878 35.6582 14.4859 35.6582 13.5056V13.2116C35.6573 12.3293 35.2652 12.0352 34.1869 12.0352ZM34.579 13.6037C34.579 13.9958 34.4809 14.0938 34.1869 14.0938H33.4036V12.9175H34.0898C34.4819 12.9175 34.5799 13.0155 34.5799 13.3096L34.579 13.6037ZM24.0645 12.0352H23.5038C22.3834 12.0352 22.0109 12.4097 22.0109 13.6213V14.3683C22.0109 15.4897 22.3843 15.9563 23.5038 15.9563H24.0645C25.185 15.9563 25.5575 15.4887 25.5575 14.3683V13.6213C25.5575 12.4097 25.185 12.0352 24.0645 12.0352ZM24.438 14.182C24.438 14.7418 24.438 14.93 23.8783 14.93H23.692C23.1323 14.93 23.1323 14.7427 23.1323 14.182V13.6213C23.1323 13.0626 23.1323 12.8743 23.692 12.8743H23.8783C24.438 12.8743 24.438 13.0616 24.438 13.6213V14.182ZM20.9551 14.4634H19.8337V14.5565C19.8337 14.931 19.7406 15.1162 19.2739 15.1162C18.8073 15.1162 18.7142 14.931 18.7142 14.3693V13.7164C18.7142 13.1547 18.7142 12.9694 19.2739 12.9694C19.6474 12.9694 19.8337 13.0626 19.8337 13.4351V13.5292H20.861V13.4351C20.861 12.4087 20.4875 12.0352 19.368 12.0352H19.0877C17.9672 12.0352 17.5938 12.4087 17.5938 13.6213V14.3693C17.5938 15.4897 17.9672 15.9563 19.0877 15.9563H19.4612C20.4885 15.9563 20.862 15.4887 20.862 14.5555V14.4624H20.9551V14.4634Z" fill="#6C6C6C"/>
</g>
<defs>
<clipPath id="clip0_975_3325">
<rect width="47.0532" height="47.0532" fill="white" transform="translate(0.935547 0.273438)"/>
</clipPath>
</defs>
</svg>
