<svg width="55" height="39" viewBox="0 0 55 39" fill="none" xmlns="http://www.w3.org/2000/svg">
<path d="M54.5215 24.7512C54.5215 28.6381 53.7615 31.9501 52.3232 34.3292C50.5779 37.2166 47.8671 38.7418 44.4805 38.7418C37.8608 38.7418 33.0186 29.7314 27.8941 20.1904C23.6113 12.2289 18.7616 3.2037 13.9219 3.2037C8.15871 3.2037 3.0293 15.2546 3.0293 24.7512C3.0293 28.1001 3.64324 30.8815 4.80182 32.8015C6.01485 34.8055 7.74777 35.7803 10.0996 35.7803C14.1001 35.7803 18.0982 29.5957 21.4873 23.5468C21.6949 23.2372 22.0119 23.0169 22.3752 22.9299C22.7384 22.8429 23.1213 22.8955 23.4473 23.0773C23.7734 23.2592 24.0187 23.5568 24.1345 23.9109C24.2502 24.2651 24.2278 24.6497 24.0718 24.9881C20.3584 31.6416 15.9023 38.7418 10.0996 38.7418C6.71545 38.7418 4.0022 37.2166 2.25691 34.3292C0.818599 31.9501 0.0585938 28.6381 0.0585938 24.7512C0.0585938 14.7585 5.45785 0.242188 13.9219 0.242188C20.5416 0.242188 25.3838 9.25258 30.5083 18.7936C34.7886 26.7551 39.6383 35.7803 44.4805 35.7803C46.8323 35.7803 48.5652 34.8055 49.7783 32.8015C50.9368 30.8815 51.5508 28.1001 51.5508 24.7512C51.5508 15.2546 46.4239 3.2037 40.6582 3.2037C38.4302 3.2037 35.9769 5.11881 33.1968 9.06009C32.9699 9.38146 32.6243 9.59984 32.236 9.66718C31.8476 9.73452 31.4483 9.64531 31.126 9.41917C30.8036 9.19303 30.5845 8.84848 30.517 8.46133C30.4494 8.07417 30.5389 7.67613 30.7658 7.35475C32.922 4.30193 36.2938 0.242188 40.6582 0.242188C49.1222 0.242188 54.5215 14.7585 54.5215 24.7512Z" fill="#396DF8"/>
</svg>
