<svg width="55" height="55" viewBox="0 0 55 55" fill="none" xmlns="http://www.w3.org/2000/svg">
<path d="M27.0952 8.98828C16.9788 8.98828 8.74805 17.1532 8.74805 27.1925C8.74805 37.2341 16.9788 45.399 27.0975 45.399C37.2095 45.399 45.4447 37.2341 45.4447 27.1925V8.98828H27.0952ZM32.9023 19.8173H34.9697C35.0291 19.8173 35.0861 19.8406 35.1285 19.8822C35.171 19.9238 35.1954 19.9803 35.1966 20.0397V22.4383H38.3736C38.4326 22.4389 38.4891 22.4625 38.531 22.504C38.573 22.5455 38.5971 22.6017 38.5983 22.6607V24.34C38.5971 24.3994 38.5726 24.456 38.5302 24.4975C38.4878 24.5391 38.4307 24.5624 38.3713 24.5624H35.1943L35.1966 28.3771V28.4724C35.1966 29.2961 35.6709 29.8113 36.3471 29.8113C36.9825 29.8113 37.4387 29.3619 37.4931 28.6222V28.6131C37.5158 28.4066 37.652 28.2999 37.8244 28.2999H39.6013C39.6599 28.2999 39.7163 28.3225 39.7586 28.3631C39.8009 28.4038 39.8259 28.4592 39.8282 28.5178V28.5677C39.8282 30.5556 38.3078 32.1713 36.3017 32.1713L36.2995 32.1645C34.1663 32.1645 32.6754 30.6123 32.6754 28.2999V20.0442C32.6754 19.9841 32.6993 19.9263 32.7419 19.8838C32.7844 19.8412 32.8422 19.8173 32.9023 19.8173ZM30.2564 22.3703C30.5661 22.3475 30.877 22.3475 31.1868 22.3703C31.2506 22.3738 31.3106 22.4016 31.3545 22.448C31.3984 22.4945 31.4229 22.556 31.4228 22.6199V24.3105C31.4222 24.3437 31.415 24.3764 31.4016 24.4068C31.3882 24.4371 31.3689 24.4645 31.3449 24.4874C31.3208 24.5102 31.2924 24.528 31.2613 24.5397C31.2303 24.5514 31.1972 24.5568 31.1641 24.5556H31.0665C29.0967 24.4716 27.7306 26.0352 27.6626 27.989V31.1411V31.1274V31.7628C27.6626 31.8291 27.6363 31.8925 27.5894 31.9394C27.5426 31.9862 27.4791 32.0125 27.4129 32.0125H25.3933C25.3271 32.0125 25.2636 31.9862 25.2168 31.9394C25.1699 31.8925 25.1437 31.8291 25.1437 31.7628V22.6812C25.1437 22.545 25.2571 22.4315 25.3933 22.4315H27.3131C27.4515 22.4315 27.5627 22.545 27.5627 22.6812V23.7523C27.889 23.3452 28.2977 23.0116 28.7619 22.7735C29.2261 22.5353 29.7354 22.3979 30.2564 22.3703ZM21.5355 22.4383H23.6391C23.6783 22.4383 23.717 22.4498 23.752 22.4675C23.7869 22.4852 23.8173 22.5109 23.8405 22.5425C23.8637 22.5741 23.8791 22.6107 23.8855 22.6494C23.8919 22.6881 23.8891 22.7277 23.8774 22.7651L20.7299 31.8468C20.7135 31.8971 20.6817 31.9409 20.6388 31.9719C20.596 32.0029 20.5445 32.0195 20.4916 32.0193H18.0657C18.0129 32.0195 17.9613 32.0029 17.9185 31.9719C17.8757 31.9409 17.8438 31.8971 17.8275 31.8468L14.68 22.7651C14.6682 22.7277 14.6654 22.6881 14.6718 22.6494C14.6782 22.6107 14.6937 22.5741 14.7169 22.5425C14.7401 22.5109 14.7704 22.4852 14.8054 22.4675C14.8404 22.4498 14.879 22.4406 14.9182 22.4406H17.0196C17.0734 22.4402 17.1259 22.4573 17.1693 22.4892C17.2126 22.5211 17.2445 22.5661 17.2601 22.6176L19.2775 28.8809H19.3161L21.2904 22.6176C21.3061 22.5661 21.3379 22.5211 21.3813 22.4892C21.4246 22.4573 21.4771 22.4402 21.5309 22.4406" fill="#F6AD01"/>
</svg>
